<?xml version="1.0" standalone="no"?>
<!DOCTYPE svg PUBLIC "-//W3C//DTD SVG 20010904//EN"
 "http://www.w3.org/TR/2001/REC-SVG-20010904/DTD/svg10.dtd">
<svg version="1.0" xmlns="http://www.w3.org/2000/svg"
 width="500.000000pt" height="20.000000pt" viewBox="0 0 500.000000 500.000000"
 preserveAspectRatio="xMidYMid meet">

<g transform="translate(0.000000,500.000000) scale(0.100000,-0.100000)"
fill="#000000" stroke="none">
<path d="M2401 3777 c-292 -509 -417 -727 -538 -934 -68 -117 -123 -216 -123
-220 0 -5 45 -53 101 -108 l101 -100 16 25 c74 107 187 206 294 255 266 122
572 69 776 -133 43 -42 90 -93 105 -112 l27 -35 99 105 99 104 -30 38 c-211
267 -547 413 -874 379 -54 -6 -114 -15 -131 -20 -40 -12 -56 -44 150 312 l160
278 46 -6 c25 -3 63 -9 84 -12 38 -5 39 -5 26 18 -39 75 -224 396 -233 406 -8
8 -48 -54 -155 -240z"/>
<path d="M2929 3514 c-13 -42 -29 -78 -34 -81 -6 -2 -42 3 -80 11 -38 8 -72
13 -76 10 -12 -7 -150 -256 -145 -261 2 -3 38 -9 78 -13 143 -16 295 -63 407
-126 24 -13 45 -23 46 -22 1 2 7 53 14 114 14 137 40 237 90 354 l39 90 -158
0 -157 0 -24 -76z"/>
<path d="M1396 2006 c-31 -96 -56 -177 -56 -180 0 -3 22 -6 50 -6 48 0 49 1
56 35 l6 35 64 0 63 0 7 -35 c6 -35 7 -35 59 -35 l53 0 -60 180 -60 180 -63 0
-63 0 -56 -174z m144 35 c10 -38 15 -72 12 -75 -8 -9 -72 -7 -72 2 0 16 34
151 38 148 2 -2 12 -36 22 -75z"/>
<path d="M1830 2000 l0 -180 45 0 45 0 0 75 0 75 60 0 60 0 0 -75 0 -75 45 0
45 0 0 180 0 180 -45 0 -44 0 -3 -67 -3 -68 -55 0 -55 0 -3 68 -3 67 -44 0
-45 0 0 -180z"/>
<path d="M2300 2000 l0 -180 45 0 45 0 0 180 0 180 -45 0 -45 0 0 -180z"/>
<path d="M2560 2001 l0 -181 45 0 45 0 0 66 c0 57 2 65 17 62 10 -2 33 -31 53
-66 l35 -62 53 0 53 0 -51 75 -51 76 25 30 c47 56 44 114 -7 153 -22 16 -47
21 -122 24 l-95 4 0 -181z m144 103 c23 -9 21 -61 -3 -74 -40 -21 -51 -13 -51
35 0 47 12 55 54 39z"/>
<path d="M3006 2006 c-31 -96 -56 -177 -56 -180 0 -3 22 -6 50 -6 48 0 49 1
56 35 l6 35 64 0 63 0 7 -35 c6 -35 7 -35 59 -35 l53 0 -60 180 -60 180 -63 0
-63 0 -56 -174z m144 35 c10 -38 15 -72 12 -75 -11 -12 -72 -6 -72 7 0 19 34
147 38 142 2 -2 12 -35 22 -74z"/>
<path d="M3440 2000 l0 -180 45 0 45 0 0 70 0 70 55 0 55 0 0 35 0 35 -55 0
-55 0 0 40 0 40 55 0 55 0 0 35 0 35 -100 0 -100 0 0 -180z"/>
<path d="M1510 1631 c-5 -11 -10 -31 -10 -44 0 -46 62 -75 90 -42 18 21 5 31
-15 12 -8 -9 -22 -14 -30 -10 -20 7 -31 52 -18 72 13 21 43 26 54 10 4 -7 11
-10 14 -7 14 14 -7 28 -40 28 -24 0 -38 -6 -45 -19z"/>
<path d="M1694 1625 c-35 -53 29 -122 76 -80 22 20 26 55 10 86 -16 28 -65 25
-86 -6z m70 -1 c11 -30 6 -63 -12 -73 -22 -12 -37 -3 -46 26 -14 45 42 90 58
47z"/>
<path d="M1885 1590 c0 -47 3 -60 15 -60 12 0 15 10 12 43 l-3 42 20 -25 c11
-14 23 -33 27 -42 3 -10 11 -18 19 -18 9 0 14 18 17 60 3 58 2 60 -22 60 -17
0 -21 -3 -12 -9 8 -5 12 -22 10 -42 l-3 -34 -25 42 c-37 63 -55 57 -55 -17z"/>
<path d="M2097 1644 c-17 -18 -6 -46 24 -56 19 -6 29 -16 27 -26 -4 -22 -23
-25 -42 -7 -14 14 -16 14 -16 1 0 -18 33 -30 61 -21 29 9 21 47 -13 63 -16 7
-28 20 -28 28 0 17 31 19 49 2 11 -11 13 -10 9 2 -5 16 -59 26 -71 14z"/>
<path d="M2270 1599 c6 -58 23 -76 63 -65 25 6 27 11 27 55 0 30 5 51 13 54 6
3 -1 6 -17 6 -23 1 -27 -2 -18 -11 29 -29 1 -105 -34 -91 -12 4 -15 17 -12 54
2 39 0 49 -12 49 -13 0 -15 -10 -10 -51z"/>
<path d="M2465 1590 l0 -60 43 0 c30 0 42 4 42 15 0 11 -8 13 -30 9 -30 -6
-30 -6 -30 39 0 27 5 47 13 50 6 3 1 6 -13 6 -24 1 -25 -1 -25 -59z"/>
<path d="M2630 1633 c0 -13 3 -14 12 -5 23 23 30 12 26 -43 -3 -53 -2 -55 22
-55 19 0 21 3 12 12 -7 7 -12 32 -12 56 0 42 1 44 25 38 14 -4 25 -2 25 4 0 5
-24 10 -55 10 -45 0 -55 -3 -55 -17z"/>
<path d="M2842 1590 c-20 -58 -20 -60 -3 -60 14 0 18 5 14 20 -4 16 0 20 21
20 19 0 26 -5 26 -20 0 -12 7 -20 16 -20 11 0 14 5 9 18 -4 9 -14 36 -22 60
-8 23 -20 42 -27 42 -7 0 -22 -27 -34 -60z m48 4 c0 -8 -7 -14 -15 -14 -17 0
-18 2 -9 24 7 18 24 12 24 -10z"/>
<path d="M3025 1590 c0 -47 3 -60 15 -60 12 0 15 9 12 40 -2 22 -2 40 1 40 3
0 16 -18 28 -40 13 -22 26 -40 31 -40 4 0 8 24 8 54 0 34 5 56 13 59 6 3 -1 6
-17 6 -23 1 -27 -2 -18 -11 14 -14 16 -58 3 -58 -5 0 -18 16 -30 35 -31 53
-46 45 -46 -25z"/>
<path d="M3221 1633 c0 -11 3 -13 6 -5 2 6 11 12 20 12 12 0 14 -11 11 -55 -2
-45 0 -55 13 -55 13 0 15 10 11 57 -5 53 -4 56 17 50 11 -3 21 -1 21 4 0 5
-22 9 -50 9 -41 0 -50 -3 -49 -17z"/>
<path d="M3413 1634 c-6 -17 4 -31 38 -48 12 -6 24 -16 26 -22 6 -18 -25 -25
-41 -9 -19 19 -26 19 -26 0 0 -19 48 -31 69 -18 30 19 24 42 -13 60 -20 9 -35
22 -33 27 6 17 39 20 48 5 4 -7 11 -10 14 -7 14 14 -7 28 -41 28 -22 0 -37 -6
-41 -16z"/>
</g>
</svg>
